<mxfile host="app.diagrams.net" modified="2022-07-25T06:27:49.055Z" agent="5.0 (Windows NT 10.0; Win64; x64) AppleWebKit/537.36 (KHTML, like Gecko) Chrome/103.0.0.0 Safari/537.36" etag="npPdrbX7vg53I2Hlrnnj" version="20.2.0" type="github">
  <diagram id="8BjttCUW-UUOqLfkBEK1" name="Page-1">
    <mxGraphModel dx="971" dy="402" grid="1" gridSize="10" guides="1" tooltips="1" connect="1" arrows="1" fold="1" page="1" pageScale="1" pageWidth="850" pageHeight="1100" math="0" shadow="0">
      <root>
        <mxCell id="0" />
        <mxCell id="1" parent="0" />
        <mxCell id="CIHjAOWLuQeS-BBWRTtq-1" value="Restaurants" style="swimlane;fontStyle=0;childLayout=stackLayout;horizontal=1;startSize=26;horizontalStack=0;resizeParent=1;resizeParentMax=0;resizeLast=0;collapsible=1;marginBottom=0;align=center;fontSize=14;fillColor=#E0E0E0;" parent="1" vertex="1">
          <mxGeometry x="110" y="50" width="190" height="200" as="geometry" />
        </mxCell>
        <mxCell id="CIHjAOWLuQeS-BBWRTtq-2" value="id : String" style="text;strokeColor=none;fillColor=none;spacingLeft=4;spacingRight=4;overflow=hidden;rotatable=0;points=[[0,0.5],[1,0.5]];portConstraint=eastwest;fontSize=12;" parent="CIHjAOWLuQeS-BBWRTtq-1" vertex="1">
          <mxGeometry y="26" width="190" height="30" as="geometry" />
        </mxCell>
        <mxCell id="CIHjAOWLuQeS-BBWRTtq-3" value="rating : Number" style="text;strokeColor=none;fillColor=none;spacingLeft=4;spacingRight=4;overflow=hidden;rotatable=0;points=[[0,0.5],[1,0.5]];portConstraint=eastwest;fontSize=12;" parent="CIHjAOWLuQeS-BBWRTtq-1" vertex="1">
          <mxGeometry y="56" width="190" height="30" as="geometry" />
        </mxCell>
        <mxCell id="HOKHph6SYEVcIRNOD1sU-3" value="name : String" style="text;strokeColor=none;fillColor=none;spacingLeft=4;spacingRight=4;overflow=hidden;rotatable=0;points=[[0,0.5],[1,0.5]];portConstraint=eastwest;fontSize=12;" vertex="1" parent="CIHjAOWLuQeS-BBWRTtq-1">
          <mxGeometry y="86" width="190" height="30" as="geometry" />
        </mxCell>
        <mxCell id="CIHjAOWLuQeS-BBWRTtq-4" value="tags: Array&#xa;&#xa;" style="text;strokeColor=none;fillColor=none;spacingLeft=4;spacingRight=4;overflow=hidden;rotatable=0;points=[[0,0.5],[1,0.5]];portConstraint=eastwest;fontSize=12;" parent="CIHjAOWLuQeS-BBWRTtq-1" vertex="1">
          <mxGeometry y="116" width="190" height="84" as="geometry" />
        </mxCell>
        <mxCell id="tXRTbySOYthtMrdHo2hH-1" value="Restaurants/Menu Item" style="swimlane;fontStyle=0;childLayout=stackLayout;horizontal=1;startSize=26;horizontalStack=0;resizeParent=1;resizeParentMax=0;resizeLast=0;collapsible=1;marginBottom=0;align=center;fontSize=14;fillColor=#E0E0E0;" parent="1" vertex="1">
          <mxGeometry x="410" y="50" width="190" height="200" as="geometry" />
        </mxCell>
        <mxCell id="tXRTbySOYthtMrdHo2hH-2" value="id : String" style="text;strokeColor=none;fillColor=none;spacingLeft=4;spacingRight=4;overflow=hidden;rotatable=0;points=[[0,0.5],[1,0.5]];portConstraint=eastwest;fontSize=12;" parent="tXRTbySOYthtMrdHo2hH-1" vertex="1">
          <mxGeometry y="26" width="190" height="30" as="geometry" />
        </mxCell>
        <mxCell id="tXRTbySOYthtMrdHo2hH-3" value="price : Number" style="text;strokeColor=none;fillColor=none;spacingLeft=4;spacingRight=4;overflow=hidden;rotatable=0;points=[[0,0.5],[1,0.5]];portConstraint=eastwest;fontSize=12;" parent="tXRTbySOYthtMrdHo2hH-1" vertex="1">
          <mxGeometry y="56" width="190" height="30" as="geometry" />
        </mxCell>
        <mxCell id="HOKHph6SYEVcIRNOD1sU-4" value="name : String" style="text;strokeColor=none;fillColor=none;spacingLeft=4;spacingRight=4;overflow=hidden;rotatable=0;points=[[0,0.5],[1,0.5]];portConstraint=eastwest;fontSize=12;" vertex="1" parent="tXRTbySOYthtMrdHo2hH-1">
          <mxGeometry y="86" width="190" height="30" as="geometry" />
        </mxCell>
        <mxCell id="tXRTbySOYthtMrdHo2hH-4" value="category: String&#xa;&#xa;" style="text;strokeColor=none;fillColor=none;spacingLeft=4;spacingRight=4;overflow=hidden;rotatable=0;points=[[0,0.5],[1,0.5]];portConstraint=eastwest;fontSize=12;" parent="tXRTbySOYthtMrdHo2hH-1" vertex="1">
          <mxGeometry y="116" width="190" height="84" as="geometry" />
        </mxCell>
        <mxCell id="tXRTbySOYthtMrdHo2hH-7" value="" style="edgeStyle=entityRelationEdgeStyle;fontSize=12;html=1;endArrow=ERoneToMany;rounded=0;exitX=1.014;exitY=0.63;exitDx=0;exitDy=0;exitPerimeter=0;" parent="1" source="CIHjAOWLuQeS-BBWRTtq-4" edge="1">
          <mxGeometry width="100" height="100" relative="1" as="geometry">
            <mxPoint x="310" y="190" as="sourcePoint" />
            <mxPoint x="410" y="90" as="targetPoint" />
          </mxGeometry>
        </mxCell>
        <mxCell id="tXRTbySOYthtMrdHo2hH-8" value="User" style="swimlane;fontStyle=0;childLayout=stackLayout;horizontal=1;startSize=26;horizontalStack=0;resizeParent=1;resizeParentMax=0;resizeLast=0;collapsible=1;marginBottom=0;align=center;fontSize=14;fillColor=#E0E0E0;" parent="1" vertex="1">
          <mxGeometry x="110" y="270" width="190" height="206" as="geometry" />
        </mxCell>
        <mxCell id="HOKHph6SYEVcIRNOD1sU-5" value="id : String" style="text;strokeColor=none;fillColor=none;spacingLeft=4;spacingRight=4;overflow=hidden;rotatable=0;points=[[0,0.5],[1,0.5]];portConstraint=eastwest;fontSize=12;" vertex="1" parent="tXRTbySOYthtMrdHo2hH-8">
          <mxGeometry y="26" width="190" height="30" as="geometry" />
        </mxCell>
        <mxCell id="tXRTbySOYthtMrdHo2hH-9" value="name : String" style="text;strokeColor=none;fillColor=none;spacingLeft=4;spacingRight=4;overflow=hidden;rotatable=0;points=[[0,0.5],[1,0.5]];portConstraint=eastwest;fontSize=12;" parent="tXRTbySOYthtMrdHo2hH-8" vertex="1">
          <mxGeometry y="56" width="190" height="30" as="geometry" />
        </mxCell>
        <mxCell id="tXRTbySOYthtMrdHo2hH-10" value="restaurantId : String" style="text;strokeColor=none;fillColor=none;spacingLeft=4;spacingRight=4;overflow=hidden;rotatable=0;points=[[0,0.5],[1,0.5]];portConstraint=eastwest;fontSize=12;" parent="tXRTbySOYthtMrdHo2hH-8" vertex="1">
          <mxGeometry y="86" width="190" height="30" as="geometry" />
        </mxCell>
        <mxCell id="HOKHph6SYEVcIRNOD1sU-2" value="&lt;p style=&quot;margin:0px;margin-top:4px;text-align:center;text-decoration:underline;&quot;&gt;&lt;b&gt;contact:Map&lt;/b&gt;&lt;/p&gt;&lt;hr&gt;&lt;p style=&quot;margin:0px;margin-left:8px;&quot;&gt;city : String&lt;br&gt;state : String&lt;br&gt;address : String&lt;/p&gt;" style="verticalAlign=top;align=left;overflow=fill;fontSize=12;fontFamily=Helvetica;html=1;" vertex="1" parent="tXRTbySOYthtMrdHo2hH-8">
          <mxGeometry y="116" width="190" height="90" as="geometry" />
        </mxCell>
        <mxCell id="tXRTbySOYthtMrdHo2hH-13" value="" style="edgeStyle=entityRelationEdgeStyle;fontSize=12;html=1;endArrow=ERmandOne;startArrow=ERmandOne;rounded=0;exitX=1.027;exitY=0.145;exitDx=0;exitDy=0;exitPerimeter=0;" parent="1" source="tXRTbySOYthtMrdHo2hH-9" edge="1">
          <mxGeometry width="100" height="100" relative="1" as="geometry">
            <mxPoint x="30" y="330" as="sourcePoint" />
            <mxPoint x="110" y="191" as="targetPoint" />
          </mxGeometry>
        </mxCell>
      </root>
    </mxGraphModel>
  </diagram>
</mxfile>
